<?xml version="1.0" encoding="utf-8"?>
<!-- Generator: Adobe Illustrator 16.2.1, SVG Export Plug-In . SVG Version: 6.00 Build 0)  -->
<!DOCTYPE svg PUBLIC "-//W3C//DTD SVG 1.1//EN" "http://www.w3.org/Graphics/SVG/1.1/DTD/svg11.dtd">
<svg version="1.1" id="Layer_1" xmlns="http://www.w3.org/2000/svg" xmlns:xlink="http://www.w3.org/1999/xlink" x="0px" y="0px"
	 width="296.193px" height="452px" viewBox="0 0 296.193 452" enable-background="new 0 0 296.193 452" xml:space="preserve">
<g id="H">
	<g id="H1" data-insta="starkt" data-time="Mar 2013" data-status="http://instagram.com/p/XXeI5Znz2r/">
		<defs>
			<rect id="SVGID_77_" x="0.612" y="132.29" width="93.42" height="61.033"/>
		</defs>
		<clipPath id="SVGID_2_">
			<use xlink:href="#SVGID_77_"  overflow="visible"/>
		</clipPath>
		<g id="RvIteU_1_" clip-path="url(#SVGID_2_)">
			
				<image overflow="visible" width="240" height="240" id="RvIteU_2_" xlink:href="6FAE833CE769EEB7.jpg"  transform="matrix(0.3871 0 0 0.3871 0.9678 132.5483)">
			</image>
		</g>
	</g>
	<g id="H2" class="twitter">
		
			<image overflow="visible" width="240" height="304" id="_x31_WfOaf_2_" xlink:href="6FAE833CE769EEB5.jpg"  transform="matrix(0.3871 0 0 0.3871 1.0967 192.8066)">
		</image>
	</g>
	<g id="H3" data-twitter="nothingfades" data-time="25 Mar 13" data-status="http://twitter.com/statuses/316174581046050816">

			<image overflow="visible" width="240" height="235" id="xv2JAr_2_" xlink:href="6FAE833CE769EEBB.jpg"  transform="matrix(0.3871 0 0 0.3871 0.709 1.0967)">
		</image>
	</g>
	<g id="H4" class="twitter">
		
			<image overflow="visible" width="240" height="103" id="HDVRvp_2_" xlink:href="6FAE833CE769EEBD.jpg"  transform="matrix(0.3871 0 0 0.3871 0.709 92.4189)">
		</image>
	</g>
	<g id="H5" class="twitter">
		
			<image overflow="visible" width="240" height="92" id="_x35_AqPYG_2_" xlink:href="6FAE833CE769EEBF.jpg"  transform="matrix(0.3871 0 0 0.3871 201.8066 253.9678)">
		</image>
	</g>
	<g id="H6" data-insta="cosmosnchaos" data-time="Mar 2013" data-status="http://instagram.com/p/XcpSlZJ9Hd/">
		<defs>
			<rect id="SVGID_79_" x="0.709" y="310.871" width="93.323" height="58.838"/>
		</defs>
		<clipPath id="SVGID_4_">
			<use xlink:href="#SVGID_79_"  overflow="visible"/>
		</clipPath>
		<g id="V0rlnU_1_" clip-path="url(#SVGID_4_)">
			
				<image overflow="visible" width="240" height="234" id="V0rlnU_2_" xlink:href="6FAE833CE769EEBC.jpg"  transform="matrix(0.3871 0 0 0.3846 0.709 279.9771)">
			</image>
		</g>
	</g>
	<g id="H7" data-insta="courtlovesme" data-status="http://instagram.com/p/XcfiiLmTHn/">
		
			<image overflow="visible" width="240" height="208" id="G28Mo7_2_" xlink:href="6FAE833CE769EEB4.jpg"  transform="matrix(0.3871 0 0 0.3871 0.9678 369.6128)">
		</image>
	</g>
	<g id="H8" data-twitter="artmonger18" data-time="25 Mar 13" data-status="http://twitter.com/statuses/316214394365300737">
		
			<image overflow="visible" width="279" height="202" id="ujONM1_2_" xlink:href="6FAE833CE769EEB6.jpg"  transform="matrix(0.3881 0 0 0.3871 93.709 172.7744)">
		</image>
	</g>
	<g id="H9" data-insta="blearyeyedbrooklyn"  data-time="Mar 2013" data-status="http://instagram.com/p/XXskmvvW50/">
		<defs>
			<rect id="SVGID_81_" x="201.516" y="1" width="93.484" height="70.839"/>
		</defs>
		<clipPath id="SVGID_6_">
			<use xlink:href="#SVGID_81_"  overflow="visible"/>
		</clipPath>
		<g id="rGgWvs_1_" clip-path="url(#SVGID_6_)">
			
				<image overflow="visible" width="240" height="232" id="rGgWvs_2_" xlink:href="6FAE833CE769EEB2.jpg"  transform="matrix(0.3871 0 0 0.3871 201.8066 1)">
			</image>
		</g>
	</g>
	<g id="H10" class="vine" data-video="https://vine.co/v/bIBpVMqKLbF">
		<defs>
			<rect id="SVGID_83_" x="201.516" y="71.709" width="93.484" height="91.226"/>
		</defs>
		<clipPath id="SVGID_8_">
			<use xlink:href="#SVGID_83_"  overflow="visible"/>
		</clipPath>
		<g id="EtWqXS_1_" clip-path="url(#SVGID_8_)">
			
				<image overflow="visible" width="241" height="236" id="EtWqXS_2_" xlink:href="2438F7CD724F8074.jpg"  transform="matrix(0.3871 0 0 0.3871 201.6123 71.7095)">
			</image>
		</g>
	</g>
	<g id="H11" data-insta="bogartandmoore" data-time="Mar 2013" data-status="http://instagram.com/p/XXcJd4yLjz/">
		
			<image overflow="visible" width="240" height="235" id="CZD4VG_2_" xlink:href="2438F7CD724F8073.jpg"  transform="matrix(0.3871 0 0 0.3871 201.8066 162.5806)">
		</image>
	</g>
	<g id="H12" data-insta="hahamag" data-time="Mar 2013" data-status="http://instagram.com/p/Xf2C9pJBim/">
		<defs>
			<rect id="SVGID_85_" x="201.774" y="289.452" width="93.226" height="84.323"/>
		</defs>
		<clipPath id="SVGID_10_">
			<use xlink:href="#SVGID_85_"  overflow="visible"/>
		</clipPath>
		<g id="_x37_QZLFM_1_" clip-path="url(#SVGID_10_)">
			
				<image overflow="visible" width="240" height="240" id="_x37_QZLFM_2_" xlink:href="2438F7CD724F808C.jpg"  transform="matrix(0.3871 0 0 0.3871 201.9033 289.5806)">
			</image>
		</g>
	</g>
	<g id="H13" data-insta="ohcat" data-time="Mar 2013" data-status="http://instagram.com/p/XgBUI8Ng6v/">
		
			<image overflow="visible" width="240" height="197" id="TYZLGJ_2_" xlink:href="2438F7CD724F808F.jpg"  transform="matrix(0.3871 0 0 0.392 201.9355 373.7744)">
		</image>
	</g>
	<g id="h">
		<polygon fill="none" stroke="#DF366D" stroke-width="2" stroke-miterlimit="10" points="1,1 93.709,1 94.226,172.871 
			201.709,172.871 201.709,1 295.193,1 295.193,451 201.903,451 201.709,250.871 94.027,250.871 94.226,450.032 1,450.032 		"/>
		<rect x="0.807" y="1" fill="none" width="92.709" height="91.161"/>
		<polygon fill="none" points="93.516,92.161 94.032,132.548 0.807,132.548 0.807,92.161 		"/>
		<polyline fill="none" points="94.032,133.064 94.032,193.322 0.807,193.322 0.807,132.548 94.032,132.548 		"/>
		<polygon fill="none" points="0.807,193.322 93.645,193.322 94.032,311.129 0.807,310.612 		"/>
		<polygon fill="none" points="0.807,369.709 0.807,310.612 94.032,311.129 94.032,369.709 		"/>
		<path fill="none" d="M0.807,450.032"/>
		<rect x="0.807" y="369.709" fill="none" width="93.226" height="80.323"/>
		<polygon fill="none" points="94.032,172.871 201.709,172.871 201.709,250.871 93.834,250.871 		"/>
		<rect x="201.516" y="1" fill="none" width="93.484" height="70.839"/>
		<polygon fill="none" points="295,71.839 295,162.936 201.709,162.936 201.516,71.839 		"/>
		<polygon fill="none" points="295,162.936 295,253.968 201.516,253.968 201.709,163 		"/>
		<polygon fill="none" points="295,253.968 295,289.581 201.709,289.581 201.516,253.968 		"/>
		<rect x="201.709" y="289.581" fill="none" width="93.291" height="84.194"/>
		<rect x="201.709" y="373.774" fill="none" width="93.291" height="77.226"/>
	</g>
</g>
</svg>
