<?xml version="1.0" encoding="utf-8"?>
<!-- Generator: Adobe Illustrator 16.2.1, SVG Export Plug-In . SVG Version: 6.00 Build 0)  -->
<!DOCTYPE svg PUBLIC "-//W3C//DTD SVG 1.1//EN" "http://www.w3.org/Graphics/SVG/1.1/DTD/svg11.dtd">
<svg version="1.1" id="Layer_1" xmlns="http://www.w3.org/2000/svg" xmlns:xlink="http://www.w3.org/1999/xlink" x="0px" y="0px"
	 width="314.334px" height="452.01px" viewBox="0 0 314.334 452.01" enable-background="new 0 0 314.334 452.01"
	 xml:space="preserve">
<g id="R">
	<g id="R1" data-insta="zohemgee" data-time="Mar 2013" data-status="http://instagram.com/p/XfuRX2zWFn/">
		
			<image overflow="visible" width="173" height="173" id="iipX1d_2_" xlink:href="938A47FAD98783F7.jpg"  transform="matrix(0.387 0 0 0.387 1.209 1.1787)">
		</image>
	</g>
	<g id="R2" data-insta="lilirusing"  data-time="Mar 2013" data-status="http://instagram.com/p/XfjsjzLyLc/"> 
		
			<image overflow="visible" width="173" height="173" id="oywGbl_2_" xlink:href="938A47FAD98783F5.jpg"  transform="matrix(0.387 0 0 0.387 68.1582 1.1787)">
		</image>
	</g>
	<g id="R3" class="twitter">
		
			<image overflow="visible" width="240" height="251" id="_x30_o6VI0_2_" xlink:href="938A47FAD98783FB.jpg"  transform="matrix(0.387 0 0 0.387 1.4668 67.8574)">
		</image>
	</g>
	<g id="R4" data-insta="rudyroodles" data-time="Mar 2013" data-status="http://instagram.com/p/XiR5bJSuj0/">
		
			<image overflow="visible" width="240" height="268" id="f4jRuD_2_" xlink:href="938A47FAD98783FD.jpg"  transform="matrix(0.387 0 0 0.387 1.4668 163.519)">
		</image>
	</g> 
	<g id="R5" data-insta="ellierlevine" data-time="Mar 2013" data-status="http://instagram.com/p/XfXuuUCjvT/">
		
			<image overflow="visible" width="240" height="213" id="w3TsV7_2_" xlink:href="938A47FAD98783FF.jpg"  transform="matrix(0.387 0 0 0.387 1.4668 267.2334)">
		</image>
	</g>
	<g id="R6" class="twitter">
		
			<image overflow="visible" width="240" height="311" id="jXCL4E_2_" xlink:href="938A47FAD98783FC.jpg"  transform="matrix(0.387 0 0 0.387 1.4668 330.3135)">
		</image>
	</g>
	<g id="R7" class="twitter">
		<defs>
			<path id="SVGID_35_" d="M135.091,1.06v67.187c0,0,27.183-2.494,52.079,16.92h105.391c0,0-0.845-49.67-63.115-74.145
				c0,0-22.2-9.097-54.837-9.962"/>
		</defs>
		<clipPath id="SVGID_2_">
			<use xlink:href="#SVGID_35_"  overflow="visible"/>
		</clipPath>
		<g id="WxlaIo_1_" clip-path="url(#SVGID_2_)">
			
				<image overflow="visible" width="406" height="217" id="WxlaIo_2_" xlink:href="938A47FAD98783F4.jpg"  transform="matrix(0.387 0 0 0.387 134.8789 1.125)">
			</image>
		</g>
	</g>
	<g id="R8" data-insta="shhipwreckk" data-time="Mar 2013" data-status="http://instagram.com/p/XfrmkGx92Y/">
		<defs>
			<path id="SVGID_37_" d="M187.17,85.167h105.391c0,0,14.126,66.563-15.093,106.552H167.304c0,0,33.733-8.901,35.475-54.244
				C202.778,137.475,205.81,104.646,187.17,85.167z"/>
		</defs>
		<clipPath id="SVGID_4_">
			<use xlink:href="#SVGID_37_"  overflow="visible"/>
		</clipPath>
		<g id="t69hXl_1_" clip-path="url(#SVGID_4_)">
			
				<image overflow="visible" width="324" height="276" id="t69hXl_2_" xlink:href="938A47FAD98783F6.jpg"  transform="matrix(0.3938 0 0 0.387 168.6582 85.0381)">
			</image>
		</g>
	</g>
	<g id="R9" data-insta="cpapale" data-time="Mar 2013" data-status="http://instagram.com/p/XXxT9FuY6n/">
		<defs>
			<path id="SVGID_39_" d="M94.808,197.137h38.699c0,0,20.897-0.774,33.797-5.418h110.164c0,0-19.479,29.346-58.564,36.506
				c0,0,47.987,5.806,59.597,35.475H167.304c0,0-9.804-3.096-21.671-2.838H94.808V197.137z"/>
		</defs>
		<clipPath id="SVGID_6_">
			<use xlink:href="#SVGID_39_"  overflow="visible"/>
		</clipPath>
		<g id="Rbh0Vg_1_" clip-path="url(#SVGID_6_)">
			
				<image overflow="visible" width="472" height="186" id="Rbh0Vg_2_" xlink:href="938A47FAD98783F2.jpg"  transform="matrix(0.3937 0 0 0.3953 94.3447 191.4614)">
			</image>
		</g>
	</g>
	<g id="R10" data-twitter="samantha_tse" data-time="30 Mar 13" data-status="http://twitter.com/statuses/318150195915407361">
		<defs>
			<path id="SVGID_41_" d="M278.5,263.7c0,0,9.287,15.48,11.867,45.665l1.549,36.377h-93.137v-28.122
				c0,0-0.258-41.537-31.476-53.921H278.5z"/>
		</defs>
		<clipPath id="SVGID_8_">
			<use xlink:href="#SVGID_41_"  overflow="visible"/>
		</clipPath>
		<g id="Oo0eAf_1_" clip-path="url(#SVGID_8_)">
			
				<image overflow="visible" width="318" height="233" id="Oo0eAf_2_" xlink:href="52FC6741709612B4.jpg"  transform="matrix(0.3935 0 0 0.387 167.3037 256.3975)">
			</image>
		</g>
	</g>
	<g  id="R11" class="vine" data-video="https://vine.co/v/bj2P3ja50JM">
		<defs>
			<path id="SVGID_43_" d="M291.916,345.743l2.58,50.051c0,0-2.58,41.021,18.833,50.309v4.902H212.453
				c0,0-11.352-9.288-11.867-47.213l-1.807-58.049H291.916z"/>
		</defs>
		<clipPath id="SVGID_10_">
			<use xlink:href="#SVGID_43_"  overflow="visible"/>
		</clipPath>
		<g id="fF4ujG_1_" clip-path="url(#SVGID_10_)">
			
				<image overflow="visible" width="294" height="269" id="fF4ujG_2_" xlink:href="52FC6741709612B3.jpg"  transform="matrix(0.3896 0 0 0.3913 198.7793 345.7427)">
			</image>
		</g>
	</g>
	<g id="r">
		<path fill="none" stroke="#DF366D" stroke-width="2.0099" stroke-miterlimit="10" d="M1.005,451.005V1.06h166.299
			c0,0,111.712-5.159,125.257,84.107c0,0,26.058,123.709-74.561,143.058c0,0,45.278,4.775,60.5,35.475
			c0,0,13.932,19.608,13.416,82.042l2.58,50.051c0,0-1.742,42.569,18.833,50.696v4.515H212.453c0,0-10.584-5.943-12.036-52.631
			l-1.638-52.631v-28.122c0,0,0-41.398-31.42-54.062c-8.344-3.363-18.769-2.693-32.269-2.696H94.808v190.143H1.005z"/>
		<path fill="none" stroke="#DF366D" stroke-width="2.0099" stroke-miterlimit="10" d="M94.808,68.247h40.283
			c0,0,29.117-2.688,52.079,16.92c0,0,18.705,15.416,15.608,52.308c0,0,0.646,40.571-35.475,54.244c0,0-15.222,7.225-46.955,5.418
			H94.808V68.247z"/>
		<path fill="none" d="M135.091,1.06h43.565c0,0,102.682,0.517,113.904,84.107H187.17c0,0-18.762-19.134-52.079-16.92V1.06z"/>
		<path fill="none" d="M187.17,85.167c0,0,18.188,14.641,15.608,52.308c0,0,0.387,41.344-35.475,54.244h110.164
			c0,0,26.831-30.444,15.093-106.552H187.17z"/>
		<path fill="none" d="M94.808,197.137h38.699c0,0,20.897-0.774,33.797-5.418h110.164c0,0-19.479,29.346-58.564,36.506
			c0,0,47.987,5.806,59.597,35.475H167.304c0,0-9.804-3.096-21.671-2.838H94.808V197.137z"/>
		<path fill="none" d="M278.5,263.7c0,0,9.287,15.48,11.867,45.665l1.549,36.377h-93.137v-28.122c0,0-0.258-41.537-31.476-53.921
			H278.5z"/>
		<path fill="none" d="M291.916,345.743l2.58,50.051c0,0-2.58,41.021,18.833,50.309v4.902H212.453c0,0-11.352-9.288-11.867-47.213
			l-1.807-58.049H291.916z"/>
		<rect x="1.005" y="68.247" fill="none" width="93.803" height="96.355"/>
		<rect x="68.362" y="1.06" fill="none" width="66.729" height="67.187"/>
		<rect x="1.005" y="1.06" fill="none" width="67.357" height="67.187"/>
		<rect x="1.005" y="164.603" fill="none" width="93.803" height="101.547"/>
		<rect x="1.005" y="266.15" fill="none" width="93.803" height="63.725"/>
		<rect x="1.005" y="329.875" fill="none" width="93.803" height="121.13"/>
	</g>
</g>
</svg>
