<?xml version="1.0" encoding="utf-8"?>
<!-- Generator: Adobe Illustrator 16.2.1, SVG Export Plug-In . SVG Version: 6.00 Build 0)  -->
<!DOCTYPE svg PUBLIC "-//W3C//DTD SVG 1.1//EN" "http://www.w3.org/Graphics/SVG/1.1/DTD/svg11.dtd">
<svg version="1.1" id="Layer_1" xmlns="http://www.w3.org/2000/svg" xmlns:xlink="http://www.w3.org/1999/xlink" x="0px" y="0px"
	 width="265.931px" height="451.875px" viewBox="0 0 265.931 451.875" enable-background="new 0 0 265.931 451.875"
	 xml:space="preserve">
<g id="E">
	<g id="E1" data-insta="liam_bombard" data-time="Mar 2013" data-status="http://instagram.com/p/Xh3kykIMbt/">
		<defs>
			<rect id="SVGID_67_" x="186.294" y="0.871" width="72.439" height="75.538"/>
		</defs>
		<clipPath id="SVGID_2_">
			<use xlink:href="#SVGID_67_"  overflow="visible"/>
		</clipPath>
		<g id="RaZ2QB_1_" clip-path="url(#SVGID_2_)">
			
				<image overflow="visible" width="193" height="193" id="RaZ2QB_2_" xlink:href="4B52FB6A51FAA857.jpg"  transform="matrix(0.3874 0 0 0.3931 186.2939 0.8062)">
			</image>
		</g>
	</g>
	<g id="E2" data-twitter="artsfortransit" data-time="31 Mar 13" data-status="http://twitter.com/statuses/318390387054096384">
		<defs>
			<rect id="SVGID_69_" x="1" y="1" width="185.294" height="75.021"/>
		 </defs>
		<clipPath id="SVGID_4_">
			<use xlink:href="#SVGID_69_"  overflow="visible"/>
		</clipPath>
		<g id="iEisuj_1_" clip-path="url(#SVGID_4_)">
			
				<image overflow="visible" width="476" height="192" id="iEisuj_2_" xlink:href="4B52FB6A51FAA855.jpg"  transform="matrix(0.3885 0 0 0.3928 1.3867 1)">
			</image>
		</g>
	</g>
	<g id="E3" class="twitter">
		
			<image overflow="visible" width="240" height="72" id="_x36_lltPN_2_" xlink:href="4B52FB6A51FAA85B.jpg"  transform="matrix(0.3874 0 0 0.3748 1.5156 76.4087)">
		</image>
	</g>
	<g id="E4" class="vine" data-video="https://vine.co/v/bjw99AObKF2">
		<defs>
			<rect id="SVGID_71_" x="1" y="103.525" width="93.874" height="83.156"/>
		</defs>
		<clipPath id="SVGID_6_">
			<use xlink:href="#SVGID_71_"  overflow="visible"/>
		</clipPath>
		<g id="ZVYjFi_1_" clip-path="url(#SVGID_6_)">
			
				<image overflow="visible" width="240" height="219" id="ZVYjFi_2_" xlink:href="4B52FB6A51FAA85D.jpg"  transform="matrix(0.3901 0 0 0.3874 1.2588 103.7832)">
			</image>
		</g>
	</g>
	<g id="E5" data-twitter="MichaelWeschler" data-time="27 Mar 13" data-status="http://twitter.com/statuses/317047193439707136">
		
			<image overflow="visible" width="240" height="264" id="MyXmuJ_2_" xlink:href="4B52FB6A51FAA85F.jpg"  transform="matrix(0.3893 0 0 0.3874 1.4521 186.6489)">
		</image>
	</g>
	<g id="E6" data-insta="birdsandbells" data-time="Mar 2013" data-status="http://instagram.com/p/XiBdQ3GOG5/">
		<defs>
			<rect id="SVGID_73_" x="1" y="288.883" width="93.874" height="78.572"/>
		</defs>
		<clipPath id="SVGID_8_">
			<use xlink:href="#SVGID_73_"  overflow="visible"/>
		</clipPath>
		<g id="LcLEJX_1_" clip-path="url(#SVGID_8_)">
			
				<image overflow="visible" width="240" height="208" id="LcLEJX_2_" xlink:href="4B52FB6A51FAA85C.jpg"  transform="matrix(0.3874 0 0 0.3874 1.3867 288.4961)">
			</image>
		</g>
	</g>
	<g id="E7"  class="vine" data-video="https://vine.co/v/bDVe95P2Ppu">
			
			<image overflow="visible" width="240" height="215" id="_x32_Mf5oa_2_" xlink:href="4B52FB6A51FAA854.jpg"  transform="matrix(0.3893 0 0 0.3874 1.0645 366.6167)">
		</image>
	</g>
	<g id="E8" class="twitter">
		
			<image overflow="visible" width="441" height="192" id="Ihwnjt_2_" xlink:href="4B52FB6A51FAA856.jpg"  transform="matrix(0.3874 0 0 0.3874 94.293 375.8491)">
		</image>
	</g>
	<g id="E9" data-insta="ashoonk" data-time="Mar 2013" data-status="http://instagram.com/p/XlomiZJJMP/">
		
			<image overflow="visible" width="191" height="192" id="qbnUVz_2_" xlink:href="4B52FB6A51FAA852.jpg"  transform="matrix(0.3874 0 0 0.3874 94.4863 181.3872)">
		</image>
	</g>
	<g id="E10" data-twitter="faustltd" data-time="24 Mar 13" data-status="http://twitter.com/statuses/315932922664321025">
		<defs>
			<rect id="SVGID_75_" x="168.087" y="181" width="80.961" height="75.151"/>
		</defs>
		<clipPath id="SVGID_10_">
			<use xlink:href="#SVGID_75_"  overflow="visible"/>
		</clipPath>
		<g id="N9z8St_1_" clip-path="url(#SVGID_10_)">
			
				<image overflow="visible" width="238" height="192" id="N9z8St_2_" xlink:href="E2FE565DD93A5494.jpg"  transform="matrix(0.3874 0 0 0.3874 156.4658 181.3872)">
			</image>
		</g>
	</g>
	<path fill="none" stroke="#DF366D" stroke-width="2" stroke-miterlimit="10" d="M94.874,76.021"/>
	<path fill="none" stroke="#DF366D" stroke-width="2" stroke-miterlimit="10" d="M94.874,76.021"/>
	<g id="e">
		<polyline fill="none" stroke="#DF366D" stroke-width="2" stroke-miterlimit="10" points="94.486,181 249.048,181 249.048,256.15 
			94.486,256.15 94.486,375.978 264.931,375.978 264.931,450.871 1,449.837 1,1 258.733,1 258.733,76.409 94.486,76.409 		"/>
		<polygon fill="none" points="1.387,1 186.294,1 186.294,76.409 1.387,75.118 		"/>
		<rect x="186.294" y="1" fill="none" width="72.826" height="75.409"/>
		<path fill="none" d="M178.547,93.97"/>
		<polygon fill="none" points="94.874,76.021 94.874,103.525 1.387,103.525 1.387,75.118 		"/>
		<rect x="1.387" y="103.525" fill="none" width="93.487" height="83.156"/>
		<rect x="1.387" y="186.681" fill="none" width="93.487" height="102.202"/>
		<rect x="1.387" y="288.883" fill="none" width="93.487" height="78.572"/>
		<rect x="1.387" y="367.456" fill="none" width="93.487" height="82.382"/>
		<polygon fill="none" points="265.318,375.978 265.318,450.871 94.874,449.837 94.874,375.978 		"/>
		<rect x="94.874" y="181" fill="none" width="73.213" height="75.151"/>
		<rect x="168.087" y="181" fill="none" width="81.349" height="75.151"/>
		<polyline fill="none" stroke="#DF366D" stroke-miterlimit="10" points="94.486,181.387 94.874,76.021 94.874,181 		"/>
	</g>
</g>
</svg>
