<?xml version="1.0" encoding="utf-8"?>
<!-- Generator: Adobe Illustrator 16.2.1, SVG Export Plug-In . SVG Version: 6.00 Build 0)  -->
<!DOCTYPE svg PUBLIC "-//W3C//DTD SVG 1.1//EN" "http://www.w3.org/Graphics/SVG/1.1/DTD/svg11.dtd">
<svg version="1.1" id="Layer_1" xmlns="http://www.w3.org/2000/svg" xmlns:xlink="http://www.w3.org/1999/xlink" x="0px" y="0px"
	 width="95.772px" height="452px" viewBox="0 0 95.772 452" enable-background="new 0 0 95.772 452" xml:space="preserve">
<g id="I">
	<g id="I1" class="vine" data-video="https://vine.co/v/bIugLIK72DE">
		
			<image overflow="visible" width="240" height="213" xlink:href="2677B0831939B0D7.jpg"  transform="matrix(0.3875 0 0 0.3875 1.7764 1.3228)">
		</image>

	</g>
	<g id="I5" data-insta="anabellepang" data-time="Mar 2013" data-status="http://instagram.com/p/XdeiweQmCX/">
		
			<image overflow="visible" width="240" height="236" id="Yjtix5_2_" xlink:href="2677B0831939B0D5.jpg"  transform="matrix(0.3875 0 0 0.3875 1.6475 175.0132)">
		</image>
	</g>
	<g id="I2" class="twitter">
		
			<image overflow="visible" width="240" height="284" id="UGVK5N_2_" xlink:href="2677B0831939B0DB.jpg"  transform="matrix(0.3875 0 0 0.3875 1.7764 340.1792)">
		</image>
	</g>
	<g id="I3" data-insta="annepasternak"  data-time="Mar 2013" data-status="http://instagram.com/p/XZ6_vQAXnb/">
		
			<image overflow="visible" width="240" height="192" id="y9DqDP_2_" xlink:href="2677B0831939B0DD.jpg"  transform="matrix(0.3875 0 0 0.3875 1.3887 265.7817)">
		</image>
	</g>
	<g id="I4" data-twitter="cailinyatsko"  data-time="28 Mar 13" data-status="http://twitter.com/statuses/317337082689380352">
		
			<image overflow="visible" width="240" height="236" id="pV2QQf_2_" xlink:href="2677B0831939B0DF.jpg"  transform="matrix(0.3875 0 0 0.3875 1.6475 83.6313)">
		</image>
	</g>
	<g id="i">
		<polygon fill="none" stroke="#DF366D" stroke-width="2" stroke-miterlimit="10" points="1.518,1 94.772,1 94.772,451 1.001,451 		
			"/>
		<rect x="1.905" y="1" fill="none" width="93.255" height="83.18"/>
		<polyline fill="none" points="1.905,84.18 1.389,175.304 95.16,175.304 95.16,84.18 "/>
		<rect x="1.389" y="175.304" fill="none" width="93.771" height="90.865"/>
		<rect x="1.389" y="266.169" fill="none" width="93.771" height="74.397"/>
		<path fill="none" d="M1.389,451H95.16H1.389z"/>
		<rect x="1.389" y="340.566" fill="none" width="93.771" height="110.434"/>
	</g>
</g>
</svg>
