<?xml version="1.0" encoding="utf-8"?>
<!-- Generator: Adobe Illustrator 16.2.1, SVG Export Plug-In . SVG Version: 6.00 Build 0)  -->
<!DOCTYPE svg PUBLIC "-//W3C//DTD SVG 1.1//EN" "http://www.w3.org/Graphics/SVG/1.1/DTD/svg11.dtd">
<svg version="1.1" id="Layer_1" xmlns="http://www.w3.org/2000/svg" xmlns:xlink="http://www.w3.org/1999/xlink" x="0px" y="0px"
	 width="335.154px" height="451.779px" viewBox="0 0 335.154 451.779" enable-background="new 0 0 335.154 451.779"
	 xml:space="preserve">
<rect x="-717.382" y="-24.343" display="none" fill="#8E8E8E" width="1200" height="1209"/>
<g id="Y">
	<g id="Y1" data-insta="apostrophereps" data-time="Mar 2013" data-status="http://instagram.com/p/XaX_CJGugh/">
		<defs>
			<polyline id="SVGID_1_" points="243.884,206.49 168.804,206.199 168.487,273.316 214.155,273.316 			"/>
		</defs>
		<clipPath id="SVGID_2_">
			<use xlink:href="#SVGID_1_"  overflow="visible"/>
		</clipPath>
		<g id="wruJyr_1_" clip-path="url(#SVGID_2_)">
			
				<image overflow="visible" width="206" height="176" id="wruJyr_3_" xlink:href="930A84E63635D2D7.jpg"  transform="matrix(0.3873 0 0 0.3839 164.2568 206.3613)">
			</image>
		</g>
	</g>
	<g id="Y2" data-insta="gallerinaoffduty" data-time="Mar 2013" data-status="http://instagram.com/p/Xary9oDu4g/">
		<defs>
			<polyline id="SVGID_3_" points="183.522,132.313 168.1,173.68 168.487,206.361 243.884,206.49 276.098,132.313 			"/>
		</defs>
		<clipPath id="SVGID_4_">
			<use xlink:href="#SVGID_3_"  overflow="visible"/>
		</clipPath> 
		<g id="ULpr9H_1_" clip-path="url(#SVGID_4_)">
			
				<image overflow="visible" width="275" height="192" id="ULpr9H_3_" xlink:href="930A84E63635D2D5.jpg"  transform="matrix(0.3906 0 0 0.3873 168.6816 132.1572)">
			</image>
		</g>
	</g>
	<g id="Y3" class="twitter">
		<defs>
			<polyline id="SVGID_5_" points="203.858,77.312 300.19,77.505 276.098,132.313 183.522,132.313 			"/>
		</defs>
		<clipPath id="SVGID_6_">
			<use xlink:href="#SVGID_5_"  overflow="visible"/>
		</clipPath>
		<g id="_x34_f4jO8_1_" clip-path="url(#SVGID_6_)">
			
				<image overflow="visible" width="299" height="143" id="_x34_f4jO8_3_" xlink:href="930A84E63635D2DB.jpg"  transform="matrix(0.3873 0 0 0.3873 183.7168 77.5049)">
			</image>
		</g>
	</g>
	<g id="Y4" data-insta="pjpolicarpio" data-time="Mar 2013" data-status="http://instagram.com/p/XSNA0yLKqj/">
		<defs>
			<polyline id="SVGID_7_" points="41.013,90.288 137.758,90.288 167.325,174.248 77.612,174.248 			"/>
		</defs>
		<clipPath id="SVGID_8_">
			<use xlink:href="#SVGID_7_"  overflow="visible"/>
		</clipPath>
		<g id="QJ9tbh_1_" clip-path="url(#SVGID_8_)">
			
				<image overflow="visible" width="342" height="321" id="QJ9tbh_3_" xlink:href="930A84E63635D2DD.jpg"  transform="matrix(0.396 0 0 0.3873 33.04 50.3906)">
			</image>
		</g>
	</g>
	<g id="Y5" data-insta="saffronamor" data-time="Mar 2013" data-status="http://instagram.com/p/XikwG6R2kd/">
		<defs>
			<polyline id="SVGID_9_" points="77.811,174.248 168.576,174.248 168.576,272.929 120.938,272.929 			"/>
		</defs>
		<clipPath id="SVGID_10_">
			<use xlink:href="#SVGID_9_"  overflow="visible"/>
		</clipPath>
		<g id="_x37_mf1am_1_" clip-path="url(#SVGID_10_)">
			
				<image overflow="visible" width="235" height="257" id="_x37_mf1am_3_" xlink:href="930A84E63635D2DF.jpg"  transform="matrix(0.3894 0 0 0.3905 77.3271 173.4492)">
			</image>
		</g>
	</g>
	<g id="Y6" data-insta="rjkhckly" data-time="Mar 2013" data-status="http://instagram.com/p/Xc3BQQQUJn/">
		<defs>
			<polygon id="SVGID_11_" points="232.202,0.908 333.103,0.908 300.66,76.796 204.245,76.796 			"/>
		</defs>
		<clipPath id="SVGID_12_">
			<use xlink:href="#SVGID_11_"  overflow="visible"/>
		</clipPath>
		<g id="DRZD6X_1_" clip-path="url(#SVGID_12_)">
			
				<image overflow="visible" width="333" height="201" id="DRZD6X_3_" xlink:href="930A84E63635D2DC.jpg"  transform="matrix(0.3938 0 0 0.3908 202.9453 0.2246)">
			</image>
		</g>
	</g>
	<g id="Y7" class="twitter">
		
			<image overflow="visible" width="241" height="459" id="sudAPA_3_" xlink:href="930A84E63635D2D4.jpg"  transform="matrix(0.3873 0 0 0.3873 120.7109 273.1182)">
		</image>
	</g>
	<g id="Y8"  class="vine" data-video="https://vine.co/v/bj1YZBwuiTa">
		<defs>
			<polygon id="SVGID_13_" points="1.536,1.005 106.636,1.005 137.881,90.288 40.271,90.288 			"/>
		</defs>
		<use xlink:href="#SVGID_13_"  overflow="visible" fill="#8E8E8E"/>
		<clipPath id="SVGID_14_">
			<use xlink:href="#SVGID_13_"  overflow="visible"/>
		</clipPath>
		<g id="v7rsF9_1_" clip-path="url(#SVGID_14_)">
			
				<image overflow="visible" width="351" height="230" id="v7rsF9_3_" xlink:href="930A84E63635D2D6.jpg"  transform="matrix(0.3926 0 0 0.3873 0.8906 1.1016)">
			</image>
		</g>
	</g>
	<g id="y">
		<polygon fill="none" stroke="#DF366D" stroke-width="2.0099" stroke-miterlimit="10" points="1.536,1.005 106.636,1.005 
			167.713,174.728 231.94,1.005 333.618,1.005 214.63,273.316 214.155,450.774 120.616,450.774 120.616,273.316 		"/>
		<rect x="120.616" y="273.316" fill="none" width="93.539" height="177.458"/>
		<polygon fill="none" points="168.677,206.361 243.884,206.49 214.63,273.316 168.294,273.316 		"/>
		<polygon fill="none" points="168.487,176.277 168.487,273.316 120.616,273.316 77.197,174.728 168.487,174.728 		"/>
		<polygon fill="none" points="276.098,132.313 243.884,206.49 168.487,206.361 168.487,174.728 183.522,132.313 		"/>
		<polygon fill="none" points="183.522,132.313 203.858,77.312 300.501,77.312 276.098,132.313 		"/>
		<polygon fill="none" points="203.858,77.312 231.94,1.005 333.618,1.005 300.501,77.312 		"/>
		<polygon fill="none" points="137.881,90.288 167.713,174.728 77.197,174.728 40.271,90.288 		"/>
		<polygon fill="none" points="1.536,1.005 106.636,1.005 137.881,90.288 40.271,90.288 		"/>
	</g>
</g>
</svg>
