<?xml version="1.0" encoding="utf-8"?>

<!DOCTYPE svg PUBLIC "-//W3C//DTD SVG 1.1//EN" "http://www.w3.org/Graphics/SVG/1.1/DTD/svg11.dtd">
<svg version="1.1" id="Layer_1" xmlns="http://www.w3.org/2000/svg" xmlns:xlink="http://www.w3.org/1999/xlink" x="0px" y="0px"
	 width="321.254px" height="451.913px" viewBox="0 0 321.254 451.913" enable-background="new 0 0 321.254 451.913"
	 xml:space="preserve">
<g id="hash">
	<g id="hash1" data-insta="kparvenski"  data-time="Apr 2013" data-status="http://instagram.com/p/XQNhzVy-Yj/">
		
			<image overflow="visible" width="195" height="203" id="FJVU7J_2_" xlink:href="3579C38F4336BA67.jpg"  transform="matrix(0.3879 0 0 0.3879 187.3271 186.8105)">
		</image>
		<g>
			<defs>
				<polyline id="SVGID_87_" points="108.39,385.74 100.372,450.908 35.464,450.908 43.997,385.74 				"/>
			</defs>
			<clipPath id="SVGID_2_">
				<use xlink:href="#SVGID_87_"  overflow="visible"/>
			</clipPath>

		</g>
	</g>
	<g id="hash16" clip-path="url(#SVGID_2_)" data-insta="pollyanne21"  data-time="Mar 2013" data-status="http://instagram.com/p/XfKsPmP5v3/">
		
			<image overflow="visible" width="184" height="169" id="uRlrpM_2_" xlink:href="3579C38F4336BA65.jpg"  transform="matrix(0.3925 0 0 0.3925 35.7217 384.2539)">
		</image>
	</g>
	<g id="hash2" class="twitter">
		
			<image overflow="visible" width="376" height="187" id="_x30_LqJsP_2_" xlink:href="3579C38F4336BA6B.jpg"  transform="matrix(0.3879 0 0 0.3879 174.3975 113.8848)">
		</image>
	</g>
	<g id="hash3" data-insta="pointeshew"  data-time="Mar 2013" data-status="http://instagram.com/p/XXjdJmPHn-/">
		<defs>
			<polyline id="SVGID_89_" points="49.945,338.287 114.596,338.287 108.39,385.74 43.997,385.74 			"/>
		</defs>
		<clipPath id="SVGID_4_">
			<use xlink:href="#SVGID_89_"  overflow="visible"/>
		</clipPath>
		<g id="hvIVIm_1_" clip-path="url(#SVGID_4_)">
			
				<image overflow="visible" width="183" height="179" id="hvIVIm_2_" xlink:href="3579C38F4336BA6D.jpg"  transform="matrix(0.3911 0 0 0.3879 43.0283 324.7109)">
			</image>
		</g>
	</g>
	<g id="hash4" class="twitter">
		<defs>
			<polyline id="SVGID_91_" points="172.781,382.993 178.373,338.093 243.897,338.093 238.046,382.993 			"/>
		</defs>
		<clipPath id="SVGID_6_">
			<use xlink:href="#SVGID_91_"  overflow="visible"/>
		</clipPath>
		<g id="bOl5yM_1_" clip-path="url(#SVGID_6_)">
			
				<image overflow="visible" width="181" height="117" id="bOl5yM_2_" xlink:href="3579C38F4336BA6F.jpg"  transform="matrix(0.3879 0 0 0.3879 173.1689 337.4629)">
			</image>
		</g>
	</g>
	<g id="hash5" data-insta="kegrant01" data-time="Mar 2013" data-status="http://instagram.com/p/Xd6wVjsWhk/">
		<defs>
			<polyline id="SVGID_93_" points="134.056,186.229 123.389,264.392 58.479,264.392 69.179,186.229 			"/>
		</defs>
		<clipPath id="SVGID_8_">
			<use xlink:href="#SVGID_93_"  overflow="visible"/>
		</clipPath>
		<g id="J0mOBu_1_" clip-path="url(#SVGID_8_)">
			
				<image overflow="visible" width="194" height="204" id="J0mOBu_2_" xlink:href="3579C38F4336BA6C.jpg"  transform="matrix(0.3959 0 0 0.3843 57.4219 185.8057)">
			</image>
		</g>
	</g>
	<g id="hash6" data-insta="janeasian"  data-time="Mar 2013" data-status="http://instagram.com/p/Xf8nu_R0xu/">
		<defs>
			<polyline id="SVGID_95_" points="237.949,382.993 229.156,450.908 164.247,450.908 172.781,382.896 			"/>
		</defs>
		<clipPath id="SVGID_10_">
			<use xlink:href="#SVGID_95_"  overflow="visible"/>
		</clipPath>
		<g id="oyuu1t_1_" clip-path="url(#SVGID_10_)">
			
				<image overflow="visible" width="190" height="173" id="oyuu1t_2_" xlink:href="3579C38F4336BA64.jpg"  transform="matrix(0.3879 0 0 0.3903 164.2471 382.9932)">
			</image>
		</g>
	</g>
	<g id="hash7" data-insta="gemmifer" data-time="Mar 2013" data-status="http://instagram.com/p/Xn6a-GETUN/">
		<defs>
			<rect id="SVGID_97_" x="133.991" y="264.328" width="86.664" height="74.056"/>
		</defs>
		<clipPath id="SVGID_12_">
			<use xlink:href="#SVGID_97_"  overflow="visible"/>
		</clipPath>
		<g id="TNbIrj_1_" clip-path="url(#SVGID_12_)">
			
				<image overflow="visible" width="376" height="187" id="TNbIrj_2_" xlink:href="3579C38F4336BA66.jpg"  transform="matrix(0.3879 0 0 0.3884 174.3975 113.6875)">
			</image>
			<g id="_x39_K0Qf9_1_">
				
					<image overflow="visible" width="223" height="193" id="_x39_K0Qf9_2_" xlink:href="3579C38F4336BA62.jpg"  transform="matrix(0.3879 0 0 0.395 134.1523 261.8672)">
				</image>
			</g>
		</g>
	</g>
	<g id="hash8" data-insta="trublu"  data-time="Mar 2013" data-status="http://instagram.com/p/XifwOEkqm8/">
		
			<image overflow="visible" width="187" height="187" id="wk3Efv_2_" xlink:href="BA9943B4B6E8F0E4.jpg"  transform="matrix(0.3879 0 0 0.3879 21.1533 113.8848)">
		</image>
	</g>
	<g id="hash9" class="vine" data-video="https://vine.co/v/bj2P3ja50JM">
		
			<image overflow="visible" width="206" height="187" id="_x30_Z9yHE_2_" xlink:href="BA9943B4B6E8F0E3.jpg"  transform="matrix(0.3964 0 0 0.3952 219.7822 264.3916)">
		</image>
	</g> 
	<g id="hash10" class="vine" data-video='https://vine.co/v/bIBpVMqKLbF'>
		<defs>
			<polyline id="SVGID_99_" points="83.821,68.016 148.893,68.016 142.978,113.885 78.294,113.885 			"/>
		</defs>
		<clipPath id="SVGID_14_">
			<use xlink:href="#SVGID_99_"  overflow="visible"/>
		</clipPath>
		<g id="SQoRBJ_1_" clip-path="url(#SVGID_14_)">
			
				<image overflow="visible" width="187" height="170" id="SQoRBJ_2_" xlink:href="BA9943B4B6E8F0FC.jpg"  transform="matrix(0.39 0 0 0.3912 78.2939 68.0156)">
			</image>
		</g>
	</g>
	<g id="hash11" data-insta="lilirusing"  data-time="Mar 2013" data-status="http://instagram.com/p/XfjsjzLyLc/">
		<defs>
			<polyline id="SVGID_101_" points="214.028,57.057 279.196,57.057 271.955,113.885 206.657,113.885 			"/>
		</defs>
		<clipPath id="SVGID_16_">
			<use xlink:href="#SVGID_101_"  overflow="visible"/>
		</clipPath>
		<g id="GtGBck_1_" clip-path="url(#SVGID_16_)">
			
				<image overflow="visible" width="187" height="187" id="GtGBck_2_" xlink:href="BA9943B4B6E8F0FF.jpg"  transform="matrix(0.3917 0 0 0.3944 206.6572 57.1553)">
			</image>
		</g>
	</g>
	<g id="hash12" data-insta="arianaslist" data-time="Mar 2013" data-status="http://instagram.com/p/Xcv5xUrq4H/">
		
			<image overflow="visible" width="207" height="187" id="_x30_TG08e_2_" xlink:href="BA9943B4B6E8F0FD.jpg"  transform="matrix(0.3879 0 0 0.3879 94.0693 113.8848)">
		</image>

	</g>
	<g id="hash15" class="twitter">
		
			<image overflow="visible" width="343" height="187" id="WGTQYh_2_" xlink:href="BA9943B4B6E8F0E2.jpg"  transform="matrix(0.3879 0 0 0.3879 1.0049 265.0703)">
		</image>
	</g>
	<g id="hash13"  data-insta="kparvenski"  data-time="Mar 2013" data-status="http://instagram.com/p/XfiKQVS-TG/">
		<defs>
			<polygon id="SVGID_103_" points="92.356,1.005 157.038,1.005 148.893,68.016 83.821,68.016 			"/>
		</defs>
		<clipPath id="SVGID_18_">
			<use xlink:href="#SVGID_103_"  overflow="visible"/>
		</clipPath>
		<g id="ueJrEn_1_" clip-path="url(#SVGID_18_)">
			
				<image overflow="visible" width="190" height="195" id="ueJrEn_2_" xlink:href="BA9943B4B6E8F0E5.jpg"  transform="matrix(0.3896 0 0 0.3896 82.8604 1.0049)">
			</image>
		</g>
	</g>
	<g id="hash14" data-twitter="joeyboots" data-time="28 Mar 13" data-status="http://twitter.com/statuses/317347517824122880">
		<defs>
			<polyline id="SVGID_105_" points="221.275,0.908 213.976,57.154 279.091,57.057 286.695,0.908 			"/>
		</defs>
		<clipPath id="SVGID_20_">
			<use xlink:href="#SVGID_105_"  overflow="visible"/>
		</clipPath>
		<g id="_x35_68Vf9_1_" clip-path="url(#SVGID_20_)">
			
				<image overflow="visible" width="193" height="145" id="_x35_68Vf9_2_" xlink:href="BA9943B4B6E8F0E7.jpg"  transform="matrix(0.39 0 0 0.3879 212.8584 0.9082)">
			</image>
		</g>
	</g>
	<g id="hash">
		<polygon fill="none" stroke="#DF366D" stroke-width="2.0099" stroke-miterlimit="10" points="92.356,1.005 157.038,1.005 
			142.978,113.497 206.657,113.497 221.269,1.005 286.308,1.005 271.955,113.497 320.249,113.497 320.249,186.811 263.034,186.811 
			252.173,264.392 301.436,264.392 301.436,338.287 243.897,338.287 229.156,450.908 164.247,450.908 178.471,338.287 
			114.596,338.287 100.372,450.908 35.464,450.908 49.945,338.287 1.005,338.287 1.005,264.392 58.479,264.392 68.564,186.811 
			20.807,186.811 20.807,113.497 77.906,113.497 		"/>
		<polygon fill="none" points="134.056,186.811 198.124,186.811 187.263,264.392 123.389,264.392 		"/>
		<rect x="20.807" y="113.497" fill="none" width="73.229" height="73.313"/>
		<rect x="94.036" y="113.497" fill="none" width="80.361" height="73.313"/>
		<rect x="174.397" y="113.497" fill="none" width="145.852" height="73.313"/>
		<rect x="1.005" y="264.392" fill="none" width="133.051" height="73.896"/>
		<rect x="134.056" y="264.392" fill="none" width="86.696" height="73.896"/>
		<rect x="220.752" y="264.392" fill="none" width="80.684" height="73.896"/>
		<polygon fill="none" points="92.356,1.005 157.038,1.005 148.893,68.016 83.821,68.016 		"/>
		<polygon fill="none" points="83.821,68.016 148.893,68.016 142.978,113.497 77.906,113.497 		"/>
		<polygon fill="none" points="221.269,1.005 286.308,1.005 279.196,57.057 214.028,57.057 		"/>
		<polygon fill="none" points="279.196,57.057 271.955,113.497 206.657,113.497 214.028,57.057 		"/>
		<polygon fill="none" points="198.124,186.811 263.034,186.811 252.173,264.392 187.263,264.392 		"/>
		<polygon fill="none" points="68.564,186.811 134.056,186.811 123.389,264.392 58.479,264.392 		"/>
		<polygon fill="none" points="49.945,338.287 114.596,338.287 108.39,385.74 43.997,385.74 		"/>
		<polygon fill="none" points="43.997,385.74 108.39,385.74 100.372,450.908 35.464,450.908 		"/>
		<polygon fill="none" points="178.471,338.287 243.897,338.287 237.433,382.896 172.781,382.896 		"/>
		<polygon fill="none" points="172.781,382.896 237.433,382.896 229.156,450.908 164.247,450.908 		"/>
	</g>
	<path fill="#DF366D" d="M84.21,68.016"/>
	<path fill="#DF366D" d="M148.214,68.016"/>
	<line fill="#DF366D" x1="214.028" y1="56.754" x2="279.132" y2="56.754"/>
	<polygon fill="none" stroke="#DF366D" stroke-miterlimit="10" points="237.433,382.896 229.156,450.908 164.247,450.908 
		172.781,382.896 	"/>
</g>
</svg>
