<?xml version="1.0" encoding="utf-8"?>
<!-- Generator: Adobe Illustrator 16.2.1, SVG Export Plug-In . SVG Version: 6.00 Build 0)  -->
<!DOCTYPE svg PUBLIC "-//W3C//DTD SVG 1.1//EN" "http://www.w3.org/Graphics/SVG/1.1/DTD/svg11.dtd">
<svg version="1.1" id="Layer_1" xmlns="http://www.w3.org/2000/svg" xmlns:xlink="http://www.w3.org/1999/xlink" x="0px" y="0px"
	 width="307.873px" height="451.519px" viewBox="0 0 307.873 451.519" enable-background="new 0 0 307.873 451.519"
	 xml:space="preserve">
<g id="D">
	<g id="D1" data-twitter="electricmeat" data-time='30 Mar 13' data-status="http://twitter.com/statuses/318151682330615808">
		<defs>
			<rect id="SVGID_15_" width="120.457" height="71.421"/>
		</defs>
		<clipPath id="SVGID_2_">
			<use xlink:href="#SVGID_15_"  overflow="visible"/>
		</clipPath>
		<g id="cgFrww_1_" clip-path="url(#SVGID_2_)">
			
				<image overflow="visible" width="301" height="438" id="cgFrww_2_" xlink:href="9489CE24202AE637.jpg"  transform="matrix(0.3839 0 0 0.3881 5.1963 4.9629)">
			</image>
		</g>
	</g>
	<g id="D2" class="twitter">
		
			<image overflow="visible" width="239" height="269" id="WRBx9T_2_" xlink:href="9489CE24202AE635.jpg"  transform="matrix(0.3826 0 0 0.3826 5.5791 71.293)">
		</image>
	</g>
	<g id="D3"  class="vine" data-video="https://vine.co/v/bDtQ00lUxl1">
		
			<image overflow="visible" width="239" height="202" id="_x34_NVf9u_2_" xlink:href="9489CE24202AE63B.jpg"  transform="matrix(0.3866 0 0 0.3866 5.1006 174.2148)">
		</image>
	</g>
	<g id="D4" data-insta="claudunia" data-time="Mar 2013" data-status="http://instagram.com/p/Xc-78TPSXR/">
		
			<image overflow="visible" width="239" height="166" id="mX9Z4d_2_" xlink:href="9489CE24202AE63D.jpg"  transform="matrix(0.3871 0 0 0.3871 4.9736 252.2192)">
		</image>
	</g>
	<g id="D5"  class="vine" data-video="https://vine.co/v/bDE95WYjeKE">
		<defs>
			<rect id="SVGID_17_" x="5.101" y="316.485" width="92.401" height="69.951"/>
		</defs>
		<clipPath id="SVGID_4_">
			<use xlink:href="#SVGID_17_"  overflow="visible"/>
		</clipPath>
		<g id="ya6096_1_" clip-path="url(#SVGID_4_)">
			
				<image overflow="visible" width="238" height="212" id="ya6096_2_" xlink:href="9489CE24202AE63F.jpg"  transform="matrix(0.3882 0 0 0.3895 5.1006 316.4854)">
			</image>
		</g>
	</g>
	<g id="D6" data-twitter="developingeye" data-time="26 Mar 13" data-status="http://twitter.com/statuses/316638930311196672">
		<defs>
			<rect id="SVGID_19_" x="5.101" y="386.372" width="92.4" height="63.415"/>
		</defs>
		<clipPath id="SVGID_6_">
			<use xlink:href="#SVGID_19_"  overflow="visible"/>
		</clipPath>
		<g id="j5TsWr_1_" clip-path="url(#SVGID_6_)">
			
				<image overflow="visible" width="239" height="166" id="j5TsWr_2_" xlink:href="9489CE24202AE63C.jpg"  transform="matrix(0.4066 0 0 0.4249 3.0566 380.9795)">
			</image>
		</g>
	</g>
	<g id="D7" data-twitter="kellipop" data-time="30 Mar 13" data-status="http://twitter.com/statuses/318148219513217024">
		<defs>
			<path id="SVGID_21_" d="M197.554,352.639c0,0-12.603,29.079-51.271,29.986H97.501v67.26h44.574c0,0,42.594-2.261,55.479-4.49
				V352.639z"/>
		</defs>
		<clipPath id="SVGID_8_">
			<use xlink:href="#SVGID_21_"  overflow="visible"/>
		</clipPath>
		<g id="Vb27pv_1_" clip-path="url(#SVGID_8_)">
			
				<image overflow="visible" width="263" height="251" id="Vb27pv_2_" xlink:href="9489CE24202AE634.jpg"  transform="matrix(0.3826 0 0 0.3904 97.2139 352.3828)">
			</image>
		</g>
	</g>
	<g id="D8" data-insta="leynanoel" data-time="Mar 2013" data-status="http://instagram.com/p/XiFq2nvWq7/">
		<defs>
			<path id="SVGID_23_" d="M120.457,71.421H282.11c0,0-12.116-33.066-46.933-49.627c0,0-15.305-10.203-57.137-15.934
				c0,0-3.826-0.63-13.264-0.567h-44.32V71.421z"/>
		</defs>
		<clipPath id="SVGID_10_">
			<use xlink:href="#SVGID_23_"  overflow="visible"/>
		</clipPath>
		<g id="l8VoeJ_1_" clip-path="url(#SVGID_10_)">
			
				<image overflow="visible" width="421" height="171" id="l8VoeJ_2_" xlink:href="9489CE24202AE636.jpg"  transform="matrix(0.3826 0 0 0.3861 120.3613 5.2612)">
			</image>
		</g>
	</g>
	<g id="D9" data-twitter="ellierlevine" data-time="1 Apr 13" data-status="https://twitter.com/e_jectamenta/status/318894951184343040">
		<defs>
			<path id="SVGID_25_" d="M208.267,320.372h91.74c0,0-2.019,25.539-15.026,51.843c0,0-21.235,61.026-87.427,72.696v-92.783
				C197.554,352.128,206.553,333.634,208.267,320.372z"/>
		</defs>
		<clipPath id="SVGID_12_">
			<use xlink:href="#SVGID_25_"  overflow="visible"/>
		</clipPath>
		<g id="LHmozH_1_" clip-path="url(#SVGID_12_)">
			
				<image overflow="visible" width="266" height="323" id="LHmozH_2_" xlink:href="9489CE24202AE632.jpg"  transform="matrix(0.3855 0 0 0.3826 197.458 320.8501)">
			</image>
		</g>
	</g>
	<g id="D10" data-insta="zmccune" data-time='14' data-status="http://instagram.com/p/XiIxEgEjMj/">
		<defs>
			<path id="SVGID_27_" d="M214.03,241.65l92.843,0.095c0,0-0.346,46.232-7.387,79.264h-91.603
				C207.884,321.01,212.476,295.502,214.03,241.65z"/>
		</defs>
		<clipPath id="SVGID_14_">
			<use xlink:href="#SVGID_27_"  overflow="visible"/>
		</clipPath>
		<g id="wvu798_1_" clip-path="url(#SVGID_14_)">
			
				<image overflow="visible" width="253" height="243" id="wvu798_2_" xlink:href="77EACB38A63345F4.jpg"  transform="matrix(0.3921 0 0 0.3903 208.0762 236.1099)">
			</image>
		</g>
	</g>
	<g id="D11" data-insta="pjpolicarpio" data-time='15' data-status="http://instagram.com/p/XQNctFLKs3/">
		<defs>
			<path id="SVGID_29_" d="M212.476,176.319c0,0,2.296,56.052,1.147,65.426h92.975c0,0,1.561-38.644-1.31-65.426H212.476z"/>
		</defs>
		<clipPath id="SVGID_16_">
			<use xlink:href="#SVGID_29_"  overflow="visible"/>
		</clipPath>
		<g id="Ox6Q80_1_" clip-path="url(#SVGID_16_)">
			
				<image overflow="visible" width="246" height="171" id="Ox6Q80_2_" xlink:href="77EACB38A63345F3.jpg"  transform="matrix(0.3863 0 0 0.3826 212.4199 176.3193)">
			</image>
		</g>
	</g>
	<g id="D12" class="twitter">
		<defs>
			<path id="SVGID_31_" d="M301.814,140.928h-92.592c0,0,3.635,28.122,3.253,35.392h92.591
				C305.066,176.319,304.685,161.589,301.814,140.928z"/>
		</defs>
		<clipPath id="SVGID_18_">
			<use xlink:href="#SVGID_31_"  overflow="visible"/>
		</clipPath>
		<g id="_x38_d4k6Z_1_" clip-path="url(#SVGID_18_)">
			
				<image overflow="visible" width="251" height="119" id="_x38_d4k6Z_2_" xlink:href="77EACB38A633460C.jpg"  transform="matrix(0.3826 0 0 0.3826 209.0312 138.8232)">
			</image>
		</g>
	</g>
	<g id="D13"  class="vine" data-video="https://vine.co/v/bIBjiB9Bnhb">
		<defs>
			<path id="SVGID_33_" d="M282.11,71.039H149.345c0,0,22.191,2.167,42.838,24.398c8.619,9.28,13.81,24.816,17.04,45.491h92.592
				C301.814,140.928,297.169,95.323,282.11,71.039z"/>
		</defs>
		<clipPath id="SVGID_20_">
			<use xlink:href="#SVGID_33_"  overflow="visible"/>
		</clipPath>
		<g id="_x35_8tJuH_1_" clip-path="url(#SVGID_20_)">
			
				<image overflow="visible" width="423" height="391" id="_x35_8tJuH_2_" xlink:href="77EACB38A633460F.jpg"  transform="matrix(0.3918 0 0 0.3847 141.3096 70.6538)">
			</image>
		</g>
	</g>
	<g id="d">
		<path fill="none" stroke="#DF366D" stroke-miterlimit="10" d="M97.501,71.675v310.966h47.635c0,0,52.792,4.654,63.131-62.27
			c0,0,10.131-78.284,4.209-144.053c0,0-0.833-62.647-22.89-83.772c0,0-15.384-17.788-40.241-21.126L97.501,71.675z"/>
		<rect x="5.101" y="5.292" fill="none" width="115.356" height="66.128"/>
		<rect x="5.101" y="71.675" fill="none" width="92.4" height="102.157"/>
		<rect x="5.101" y="173.832" fill="none" width="92.4" height="76.522"/>
		<rect x="5.101" y="250.354" fill="none" width="92.4" height="55.096"/>
		<rect x="5.101" y="305.45" fill="none" width="92.4" height="80.922"/>
		<rect x="5.101" y="386.372" fill="none" width="92.4" height="62.939"/>
		<path fill="none" d="M120.457,71.421H282.11c0,0-12.702-32.659-46.933-49.627c0,0-15.305-10.203-57.137-15.934
			c0,0-3.826-0.63-13.264-0.567h-44.32V71.421z"/>
		<path fill="none" d="M282.11,71.421H149.345c0,0,15.942,1.785,33.969,14.744c12.24,8.799,22.003,26.712,25.909,54.763h92.592
			C301.814,140.928,297.169,95.573,282.11,71.421z"/>
		<path fill="none" d="M301.814,140.928h-92.592c0,0,3.635,28.122,3.253,35.392h92.209
			C304.685,176.319,302.893,149.192,301.814,140.928z"/>
		<path fill="none" d="M212.476,176.319c0,0,2.296,56.052,1.147,65.426h92.592c0,0,1.339-38.644-1.53-65.426H212.476z"/>
		<path fill="none" d="M213.623,241.746h92.018c0,0,0.766,45.913-6.504,78.626h-90.87
			C208.267,320.372,212.666,295.12,213.623,241.746z"/>
		<path fill="none" d="M208.267,320.372h90.87c0,0-2.487,27.739-14.156,51.843c0,0-21.235,61.026-87.427,72.696v-92.783
			C197.554,352.128,206.553,333.634,208.267,320.372z"/>
		<path fill="none" d="M197.554,352.128c0,0-12.052,29.079-52.418,30.513H97.501v66.67h44.574c0,0,44,0.574,55.479-4.4V352.128z"/>
		<path fill="none" stroke="#DF366D" stroke-width="2" stroke-miterlimit="10" d="M5.101,5.292h115.356l35.594-0.246
			c0,0,90.857-6.614,126.06,66.375c0,0,20.517,26.561,24.417,127.824c0,0,3.34,87.049-10.728,140.928
			c0,0-17.146,91.325-98.246,104.739c0,0-36.897,5.677-68.476,5.039L5.101,449.312V5.292z"/>
	</g>
</g>
</svg>
