<?xml version="1.0" encoding="utf-8"?>
<!-- Generator: Adobe Illustrator 16.2.1, SVG Export Plug-In . SVG Version: 6.00 Build 0)  -->
<!DOCTYPE svg PUBLIC "-//W3C//DTD SVG 1.1//EN" "http://www.w3.org/Graphics/SVG/1.1/DTD/svg11.dtd">
<svg version="1.1" id="Layer_1" xmlns="http://www.w3.org/2000/svg" xmlns:xlink="http://www.w3.org/1999/xlink" x="0px" y="0px"
	 width="308.382px" height="452.009px" viewBox="0 0 308.382 452.009" enable-background="new 0 0 308.382 452.009"
	 xml:space="preserve">
<g id="N">
	<g id="N1" data-twitter="kaitwells" data-time="Mar 2013" data-status="http://twitter.com/statuses/317011086564028418">
		<defs>
			<polygon id="SVGID_107_" points="137.917,80.568 1.005,80.568 1.005,1.005 108.468,1.005 			"/>
		</defs>
		<clipPath id="SVGID_2_">
			<use xlink:href="#SVGID_107_"  overflow="visible"/>
		</clipPath>
		<g id="wbKuln_1_" clip-path="url(#SVGID_2_)">
			
				<image overflow="visible" width="352" height="237" id="wbKuln_2_" xlink:href="B86592E212487B77.jpg"  transform="matrix(0.3875 0 0 0.3875 1.0049 1.0674)">
			</image>
		</g>
	</g>
	<g id="N2" data-insta="nancybriscoe" data-time="Mar 2013" data-status="http://twitter.com/statuses/318386378280943616">
		
			<image overflow="visible" width="222" height="292" id="hJuZ9E_2_" xlink:href="B86592E212487B75.jpg"  transform="matrix(0.3881 0 0 0.3879 1.1338 80.5684)">
		</image>
	</g>
	<g id="N3" data-insta="mterrim" data-time="Mar 2013" data-status="http://instagram.com/p/XfwwEOH8CF/">
		
			<image overflow="visible" width="221" height="220" id="M55pdg_2_" xlink:href="B86592E212487B7B.jpg"  transform="matrix(0.3875 0 0 0.3875 1.3276 193.8428)">
		</image>
	</g>
	<g id="N4" class="twitter">
		
			<image overflow="visible" width="220" height="260" id="T73nvk_2_" xlink:href="B86592E212487B7D.jpg"  transform="matrix(0.3875 0 0 0.3875 1.5215 278.96)">
		</image>
	</g>
	<g id="N5" data-insta="ephtys" data-time="Mar 2013" data-status="http://instagram.com/p/Xm3MMmMEEJ/">
		
			<image overflow="visible" width="221" height="183" id="DsX8qL_2_" xlink:href="B86592E212487B7F.jpg"  transform="matrix(0.3875 0 0 0.3875 1.3276 379.9004)">
		</image>
	</g>
	<g id="N6" data-insta="lala_che" data-time="Mar 2013" data-status="http://instagram.com/p/XatfNOvoLE/">
		<defs>
			<polyline id="SVGID_109_" points="87.285,80.568 138.175,80.699 171.047,170.205 99.168,170.205 87.285,136.231 			"/>
		</defs>
		<clipPath id="SVGID_4_">
			<use xlink:href="#SVGID_109_"  overflow="visible"/>
		</clipPath>
		<g id="_x38_5b8dY_1_" clip-path="url(#SVGID_4_)">
			
				<image overflow="visible" width="227" height="232" id="_x38_5b8dY_2_" xlink:href="B86592E212487B7C.jpg"  transform="matrix(0.398 0 0 0.392 80.6978 78.8701)">
			</image>
		</g>
	</g>
	<g id="N7" data-insta="paolaes" data-time="Mar 2013" data-status="http://instagram.com/p/XiVt3sFHZY/">
		<defs>
			<polyline id="SVGID_111_" points="99.168,169.174 170.466,169.174 205.727,263.462 133.267,263.462 			"/>
		</defs>
		<clipPath id="SVGID_6_">
			<use xlink:href="#SVGID_111_"  overflow="visible"/>
		</clipPath>
		<g id="oQhMsJ_1_" clip-path="url(#SVGID_6_)">
			
				<image overflow="visible" width="267" height="242" id="oQhMsJ_2_" xlink:href="B86592E212487B74.jpg"  transform="matrix(0.3943 0 0 0.3875 99.9429 169.4326)">
			</image>
		</g>
	</g> 
	<g id="N8" data-insta="oliveah_burgess" data-time="Mar 2013" data-status="http://instagram.com/p/XWPAgwqfgm/">
		<defs>
			<polyline id="SVGID_113_" points="133.719,263.072 205.651,263.072 222.13,307.894 149.664,307.894 			"/>
		</defs>
		<clipPath id="SVGID_8_">
			<use xlink:href="#SVGID_113_"  overflow="visible"/>
		</clipPath>
		<g id="NaAYkN_1_" clip-path="url(#SVGID_8_)">
			
				<image overflow="visible" width="223" height="116" id="raAYkN_2_" xlink:href="B86592E212487B76.jpg"  transform="matrix(0.3982 0 0 0.3864 133.3301 263.0723)">
			</image>
		</g>
	</g>
	<g id="N9"  data-insta="rjkhckly" data-time="Mar 2013" data-status="http://instagram.com/p/Xc3BQQQUJn/">
		<defs>
			<polyline id="SVGID_115_" points="149.089,307.894 170.615,364.982 179.788,371.988 207.23,376.445 228.911,371.504 
				227.642,356.005 228.911,326.943 225.591,293.426 			"/>
		</defs>
		<clipPath id="SVGID_10_">
			<use xlink:href="#SVGID_115_"  overflow="visible"/>
		</clipPath>
		<g id="X684Vm_1_" clip-path="url(#SVGID_10_)">
			
				<image overflow="visible" width="187" height="152" id="X684Vm_2_" xlink:href="B86592E212487B72.jpg"  transform="matrix(0.3906 0 0 0.3756 149.0894 307.8936)">
			</image>
		</g>
	</g>
	<g id="N10" data-insta="katflower" data-time="Mar 2013" data-status="http://instagram.com/p/Xh63XrIYcB/">
		<defs>
			<polyline id="SVGID_117_" points="169.949,364.982 201.053,451.004 307.377,451.005 307.377,364.982 			"/>
		</defs>
		<clipPath id="SVGID_12_">
			<use xlink:href="#SVGID_117_"  overflow="visible"/>
		</clipPath>
		<g clip-path="url(#SVGID_12_)">
			<defs>
				<rect id="SVGID_119_" x="169.949" y="364.982" width="137.428" height="86.022"/>
			</defs>
			<clipPath id="SVGID_14_">
				<use xlink:href="#SVGID_119_"  overflow="visible"/>
			</clipPath>
			<g id="T2mLYU_1_" clip-path="url(#SVGID_14_)">
				
					<image overflow="visible" width="352" height="220" id="T2mLYU_2_" xlink:href="A6AE3AACA479D834.jpg"  transform="matrix(0.3904 0 0 0.391 169.9492 364.9824)">
				</image>
			</g>
		</g>
	</g>
	<g id="N11" data-twitter="nothingfades" data-time="1 Apr 13" data-status="https://twitter.com/nothingfades/status/318756697835454464">
		
			<image overflow="visible" width="220" height="207" id="jWtS6C_2_" xlink:href="A6AE3AACA479D833.jpg"  transform="matrix(0.3875 0 0 0.3875 222.1304 285.6777)">
		</image>
	</g>
	<g id="N12"  class="vine" data-video="https://vine.co/v/bjw99AObKF2">
		
			<image overflow="visible" width="220" height="205" id="IysXqm_2_" xlink:href="A6AE3AACA479D84C.jpg"  transform="matrix(0.3875 0 0 0.3884 222.1304 206.0488)">
		</image>
	</g>
	<g id="N13" data-insta="jbakercaldwell" data-time="Mar 2013" data-status="http://instagram.com/p/XZyn0El-8Z/">
		
			<image overflow="visible" width="220" height="184" id="_x38_bysbE_2_" xlink:href="A6AE3AACA479D84F.jpg"  transform="matrix(0.3875 0 0 0.3891 222.1304 134.5576)">
		</image>
	</g>
	<g id="N14" class="twitter">
		
			<image overflow="visible" width="270" height="80" id="_x34_JLYCj_2_" xlink:href="A6AE3AACA479D84D.jpg"  transform="matrix(0.3157 0 0 0.3157 222.1304 109.1133)">
		</image>
	</g>
	<g id="N15" data-twitter="fitzandco" data-time="28 Mar 13" data-status="http://twitter.com/statuses/317290578645774337">
		
			<image overflow="visible" width="220" height="273" id="XnmQsz_2_" xlink:href="A6AE3AACA479D853.jpg"  transform="matrix(0.3875 0 0 0.3875 222.3887 1.1982)">
		</image>
	</g>
	<g id="n">
		<polygon fill="none" stroke="#DF366D" stroke-width="2.0099" stroke-miterlimit="10" points="1.005,451.004 1.005,1.005 
			108.726,1.005 222.13,307.894 222.13,1.005 307.377,1.005 307.377,451.004 201.464,451.004 87.285,135.592 87.285,451.004 		"/>
		<rect x="1.005" y="379.706" fill="none" width="86.28" height="71.298"/>
		<rect x="1.005" y="278.96" fill="none" width="86.28" height="100.746"/>
		<rect x="1.005" y="193.972" fill="none" width="86.28" height="84.988"/>
		<rect x="1.005" y="80.568" fill="none" width="86.28" height="113.403"/>
		<polyline fill="none" points="1.005,80.568 1.005,1.005 108.726,1.005 137.658,80.568 87.285,80.568 87.285,135.592 
			99.168,169.174 170.466,169.174 108.726,1.005 		"/>
		<polygon fill="none" points="99.168,169.174 170.466,169.174 205.727,263.462 133.267,263.462 		"/>
		<polygon fill="none" points="205.727,263.462 222.26,307.894 149.929,307.894 133.267,263.462 		"/>
		<polygon fill="none" points="149.929,307.894 222.13,307.894 222.13,364.982 170.764,364.982 		"/>
		<polygon fill="none" points="170.466,364.982 307.377,364.982 307.377,451.004 201.464,451.004 		"/>
		<rect x="222.13" y="285.678" fill="none" width="85.247" height="79.305"/>
		<rect x="222.13" y="205.855" fill="none" width="85.247" height="79.822"/>
		<rect x="222.13" y="134.558" fill="none" width="85.247" height="71.298"/>
		<rect x="222.13" y="107.176" fill="none" width="85.247" height="27.382"/>
		<rect x="222.13" y="1.005" fill="none" width="85.247" height="106.171"/>
	</g>
	<path fill="#DF366D" d="M188.871,155.674"/>
	<path fill="#DF366D" d="M134.042,263.462"/>
</g>
</svg>
