<?xml version="1.0" encoding="utf-8"?>
<!-- Generator: Adobe Illustrator 16.2.1, SVG Export Plug-In . SVG Version: 6.00 Build 0)  -->
<!DOCTYPE svg PUBLIC "-//W3C//DTD SVG 1.1//EN" "http://www.w3.org/Graphics/SVG/1.1/DTD/svg11.dtd">
<svg version="1.1" id="Layer_1" xmlns="http://www.w3.org/2000/svg" xmlns:xlink="http://www.w3.org/1999/xlink" x="0px" y="0px"
	 width="946.35px" height="1164.799px" viewBox="0 0 946.35 1164.799" enable-background="new 0 0 946.35 1164.799"
	 xml:space="preserve">
<g id="A">
	<g id="A1" class="twitter">
		<defs>
			<polyline id="SVGID_1_" points="685.322,203 631.322,1 335.322,1 281.322,202.49 			"/>
		</defs>
		<clipPath id="SVGID_2_">
			<use xlink:href="#SVGID_1_"  overflow="visible"/>
		</clipPath>
		<g id="Odc0nd_1_" clip-path="url(#SVGID_2_)">
			
				<image overflow="visible" width="406" height="200" id="Odc0nd_2_" xlink:href="C77C930315783CAD.jpg"  transform="matrix(1 0 0 1 280.5 2)">
			</image>
		</g>
	</g>
	<g id="A2" data-insta="hwangsusie" data-time="Mar 2013" data-status="http://instagram.com/p/XiZN_rJSdf/">
		<defs>
			<polyline id="SVGID_3_" points="280.722,202 213,450.19 427.333,450.189 482,202 			"/>
		</defs>
		<clipPath id="SVGID_4_">
			<use xlink:href="#SVGID_3_"  overflow="visible"/>
		</clipPath>
		<g id="wkFXnh_1_" clip-path="url(#SVGID_4_)">
			
				<image overflow="visible" width="269" height="252" id="wkFXnh_2_" xlink:href="C77C930315783CAF.jpg"  transform="matrix(1 0 0 0.9849 213 202.4053)">
			</image>
		</g>
	</g>
	<g id="A3" data-insta="derekschultz_" data-time="Mar 2013" data-status="http://instagram.com/p/XZvZf-AlYA/">
		<defs>
			<polyline id="SVGID_5_" points="428.667,450 394.154,601 172.586,601 214.217,450.335 			"/>
		</defs>
		<clipPath id="SVGID_6_">
			<use xlink:href="#SVGID_5_"  overflow="visible"/>
		</clipPath>
		<g id="YWeDyf_1_" clip-path="url(#SVGID_6_)">
			
				<image overflow="visible" width="256" height="154" id="YWeDyf_2_" xlink:href="C77C930315783CAA.jpg"  transform="matrix(1.0052 0 0 0.9805 171.3267 450)">
			</image>
		</g>
		<use xlink:href="#SVGID_5_"  overflow="visible" fill="none" stroke="#DF366D" stroke-miterlimit="10"/>
	</g>
	<g id="A4" data-insta="natothompson" data-time="Mar 2013" data-status="http://instagram.com/p/XYXuCfh-km/">
		<defs>
			<polygon id="SVGID_7_" points="172.586,600.999 394.154,601 332.712,887 95.169,887 			"/>
		</defs>
		<clipPath id="SVGID_8_">
			<use xlink:href="#SVGID_7_"  overflow="visible"/>
		</clipPath>
		<g clip-path="url(#SVGID_8_)">
			<g>
				<defs>
					<rect id="SVGID_9_" x="92.999" y="601.205" width="299.793" height="299.794"/>
				</defs>
				<clipPath id="SVGID_10_">
					<use xlink:href="#SVGID_9_"  overflow="visible"/>
				</clipPath>
				<g clip-path="url(#SVGID_10_)">
					
						<image overflow="visible" width="612" height="612" xlink:href="C77C930315783CAB.jpg"  transform="matrix(0.4899 0 0 0.4899 92.9985 601.2051)">
					</image>
				</g>
			</g>
		</g>
	</g>
	<g id="A5" data-insta="mollybgross" data-time="Mar 2013" data-status="http://instagram.com/p/Xfz7IEoDvS/">
		<defs>
			<polyline id="SVGID_11_" points="95.169,887 333,887 269,1161 21,1161 			"/>
		</defs>
		<clipPath id="SVGID_12_">
			<use xlink:href="#SVGID_11_"  overflow="visible"/>
		</clipPath>
		<g id="JN6Cfi_1_" clip-path="url(#SVGID_12_)">
			
				<image overflow="visible" width="323" height="343" id="JN6Cfi_2_" xlink:href="C77C930315783CB5.jpg"  transform="matrix(1.0248 0 0 1 0 887)">
			</image>
		</g>
	</g>
	<g id="A6" data-insta="huffthis" data-time="Mar 2013" data-status="http://instagram.com/p/XktY8juUtP/">
		<defs>
			<polyline id="SVGID_13_" points="684.667,202.334 759,473 540.783,473 480,203 			"/>
		</defs>
		<clipPath id="SVGID_14_">
			<use xlink:href="#SVGID_13_"  overflow="visible"/>
		</clipPath>
		<g id="eNzgEO_1_" clip-path="url(#SVGID_14_)">
			
				<image overflow="visible" width="275" height="273" id="eNzgEO_2_" xlink:href="C77C930315783CB7.jpg"  transform="matrix(1.0192 0 0 1.0192 481 203)">
			</image>
		</g>
	</g>
	<g id="A7" class="twitter">
		<defs>
			<polyline id="SVGID_15_" points="540.984,473.05 758.984,472.959 780.184,550.95 558.358,551.043 			"/>
		</defs>
		<clipPath id="SVGID_16_">
			<use xlink:href="#SVGID_15_"  overflow="visible"/>
		</clipPath>
		<g id="jFtOeO_1_" clip-path="url(#SVGID_16_)">
			
				<image overflow="visible" width="237" height="77" id="jFtOeO_2_" xlink:href="C77C930315783CBA.jpg"  transform="matrix(1 -4.180000e-04 4.180000e-04 1 540.9839 473.0498)">
			</image>
		</g>
	</g>
	<g id="A8" data-twitter="MOMAtalks" data-time="28 Mar 13" data-status="http://twitter.com/statuses/317286926044520448">
		
			<image overflow="visible" width="284" height="236" id="MAhpsX_2_" xlink:href="C77C930315783CBB.jpg"  transform="matrix(0.9941 0 0 0.9913 558.6665 551.043)">
		</image>
	</g>
	<g id="A9" data-insta='sarahsarahowen'  data-time="28 Mar 13" data-status="http://instagram.com/p/Xhwj_KrQal/">
		<defs>
			<polyline id="SVGID_17_" points="611,785 841.869,785 890.667,968 653.83,968 "/>
		</defs>
		<clipPath id="SVGID_18_">
			<use xlink:href="#SVGID_17_"  overflow="visible"/>
		</clipPath>
		<g id="tLf0O2_1_" clip-path="url(#SVGID_18_)">
			
				<image overflow="visible" width="282" height="183" id="tLf0O2_2_" xlink:href="C77C930315783CBD.jpg"  transform="matrix(1 0 0 1 611 785)">
			</image>
		</g>
	</g>
	<g id="A10" data-insta="bigkimjeff" data-time="Mar 2013" data-status="http://instagram.com/p/Xfqkd6SzPI/">
		<defs>
			<polyline id="SVGID_19_" points="654,968 890.401,968 943,1161 697.869,1161 			"/>
		</defs>
		<clipPath id="SVGID_20_">
			<use xlink:href="#SVGID_19_"  overflow="visible"/>
		</clipPath>
		<g id="pXTip6_1_" clip-path="url(#SVGID_20_)">
			
				<image overflow="visible" width="291" height="193" id="pXTip6_2_" xlink:href="D5013F721A60C506.jpg"  transform="matrix(1.0046 0 0 1 654 968)">
			</image>
		</g>
	</g>
	<g id="A11" data-insta="mirseum"  data-time="Mar 2013" data-status="http://instagram.com/p/Xfee5HhKIj/">
		<defs>
			<polyline id="SVGID_21_" points="597.796,725.583 641,916.5 629,936.667 515,932.333 423.333,929 441,744 447.667,715.667 			"/>
		</defs>
		<clipPath id="SVGID_22_">
			<use xlink:href="#SVGID_21_"  overflow="visible"/>
		</clipPath>
		<g id="qSjni6_1_" clip-path="url(#SVGID_22_)">
			
				<image overflow="visible" width="186" height="191" id="qSjni6_2_" xlink:href="D5013F721A60C501.jpg"  transform="matrix(1 0 0 1 455 725.5)">
			</image>
		</g>
	</g>
	<g id="A12" data-insta="hek8"  data-time="Mar 2013" data-status="http://instagram.com/p/Xfee5HhKIj/">
		<defs>
			<path id="SVGID_23_" d="M365.333,726L325,917l32.667,16.333l80.333,14l42,3.334c0,0,1-44.334,2-45.334s3-167,3-167
				s-15-57.667-14-58"/>
		</defs>
		<clipPath id="SVGID_24_">
			<use xlink:href="#SVGID_23_"  overflow="visible"/>
		</clipPath>
		<g id="EFEXB5_1_" clip-path="url(#SVGID_24_)">
			
				<image overflow="visible" width="130" height="191" id="EFEXB5_2_" xlink:href="D5013F721A60C502.jpg"  transform="matrix(1 0 0 1 325 726)">
			</image>
		</g>
	</g>
	<g id="a">
		<polygon fill="none" stroke="#DF366D" stroke-width="2" stroke-miterlimit="10" points="281,202 685,203 631,1 335,1 		"/>
		<polygon fill="none" points="281,202 213,451 427,451 480,203 		"/>
		<polygon fill="none" points="213,451 427,451 393,601 173,601 		"/>
		<polyline fill="none" points="393,601 333,887 93,887 172,601 		"/>
		<polygon fill="none" points="333,887 269,1161 21,1161 93,887 		"/>
		<polygon fill="none" points="369,725 597,725 641,917 325.993,917 		"/>
		<polygon fill="none" points="480,203 685,203 759,473 541,473 		"/>
		<polygon fill="none" points="541,473 559,551 781,551 759,473 		"/>
		<polygon fill="none" points="559,551 781,551 841,785 611,785 		"/>
		<polygon fill="none" points="699,1161 943,1161 841,785 611,785 		"/>
		<polygon fill="none" stroke="#DF366D" stroke-width="2" stroke-miterlimit="10" points="335,1 631,1 943,1161 699,1161 
			641.894,917 325.993,917 269,1161 21,1161 		"/>
		<polygon fill="none" stroke="#DF366D" stroke-width="2" stroke-miterlimit="10" points="480,203 597.645,725.583 369,725 		"/>
	</g>
</g>
</svg>
